<mxfile host="Electron" agent="Mozilla/5.0 (Windows NT 10.0; Win64; x64) AppleWebKit/537.36 (KHTML, like Gecko) draw.io/26.0.16 Chrome/132.0.6834.196 Electron/34.2.0 Safari/537.36" version="26.0.16">
  <diagram name="Page-1" id="WASLpTwy2ZbQWI6ii88h">
    <mxGraphModel dx="1434" dy="836" grid="1" gridSize="10" guides="1" tooltips="1" connect="1" arrows="1" fold="1" page="1" pageScale="1" pageWidth="850" pageHeight="1100" math="0" shadow="0">
      <root>
        <mxCell id="0" />
        <mxCell id="1" parent="0" />
        <mxCell id="7nAhwSSTOHI013ocTRrG-188" value="" style="rounded=0;whiteSpace=wrap;html=1;fillColor=none;" parent="1" vertex="1">
          <mxGeometry x="40" y="40.97" width="760" height="1279.03" as="geometry" />
        </mxCell>
        <mxCell id="7nAhwSSTOHI013ocTRrG-128" value="" style="endArrow=none;html=1;rounded=0;" parent="1" edge="1">
          <mxGeometry width="50" height="50" relative="1" as="geometry">
            <mxPoint x="320" y="1320" as="sourcePoint" />
            <mxPoint x="320" y="40" as="targetPoint" />
          </mxGeometry>
        </mxCell>
        <mxCell id="7nAhwSSTOHI013ocTRrG-129" value="" style="endArrow=none;html=1;rounded=0;entryX=1.002;entryY=0.023;entryDx=0;entryDy=0;entryPerimeter=0;" parent="1" target="7nAhwSSTOHI013ocTRrG-188" edge="1">
          <mxGeometry width="50" height="50" relative="1" as="geometry">
            <mxPoint x="40" y="80" as="sourcePoint" />
            <mxPoint x="760" y="80" as="targetPoint" />
            <Array as="points">
              <mxPoint x="390" y="80" />
            </Array>
          </mxGeometry>
        </mxCell>
        <mxCell id="7nAhwSSTOHI013ocTRrG-130" value="User" style="text;html=1;align=center;verticalAlign=middle;whiteSpace=wrap;rounded=0;fontSize=18;fontStyle=1" parent="1" vertex="1">
          <mxGeometry x="40" y="40.97" width="280" height="40" as="geometry" />
        </mxCell>
        <mxCell id="_p5EBCPVnYr-h8DB5MFF-2" value="" style="edgeStyle=orthogonalEdgeStyle;rounded=0;orthogonalLoop=1;jettySize=auto;html=1;fontSize=12;" parent="1" source="7nAhwSSTOHI013ocTRrG-132" target="_p5EBCPVnYr-h8DB5MFF-1" edge="1">
          <mxGeometry relative="1" as="geometry" />
        </mxCell>
        <mxCell id="7nAhwSSTOHI013ocTRrG-132" value="" style="ellipse;whiteSpace=wrap;html=1;aspect=fixed;labelBackgroundColor=none;fillColor=#000000;fontSize=12;" parent="1" vertex="1">
          <mxGeometry x="165" y="104.97" width="30" height="30" as="geometry" />
        </mxCell>
        <mxCell id="7nAhwSSTOHI013ocTRrG-177" value="" style="ellipse;html=1;shape=endState;fillColor=#000000;strokeColor=#ff0000;fontSize=12;" parent="1" vertex="1">
          <mxGeometry x="165" y="1265" width="30" height="30" as="geometry" />
        </mxCell>
        <mxCell id="7nAhwSSTOHI013ocTRrG-131" value="System" style="text;html=1;align=center;verticalAlign=middle;whiteSpace=wrap;rounded=0;fontSize=18;fontStyle=1" parent="1" vertex="1">
          <mxGeometry x="320" y="40" width="480" height="40" as="geometry" />
        </mxCell>
        <mxCell id="20DuT2QTR_UrF6RUShH2-2" value="" style="edgeStyle=orthogonalEdgeStyle;rounded=0;orthogonalLoop=1;jettySize=auto;html=1;fontSize=12;entryX=0.5;entryY=0;entryDx=0;entryDy=0;entryPerimeter=0;" parent="1" source="_p5EBCPVnYr-h8DB5MFF-1" target="ihfOgLCXBoVDXEVbLBRh-1" edge="1">
          <mxGeometry relative="1" as="geometry">
            <mxPoint x="180" y="270" as="targetPoint" />
          </mxGeometry>
        </mxCell>
        <mxCell id="_p5EBCPVnYr-h8DB5MFF-1" value="Halaman &quot;Profile&quot;" style="rounded=1;whiteSpace=wrap;html=1;strokeWidth=2;fontSize=12;" parent="1" vertex="1">
          <mxGeometry x="120" y="160" width="120" height="60" as="geometry" />
        </mxCell>
        <mxCell id="20DuT2QTR_UrF6RUShH2-37" style="edgeStyle=orthogonalEdgeStyle;rounded=0;orthogonalLoop=1;jettySize=auto;html=1;fontSize=12;" parent="1" source="_p5EBCPVnYr-h8DB5MFF-18" target="20DuT2QTR_UrF6RUShH2-35" edge="1">
          <mxGeometry relative="1" as="geometry" />
        </mxCell>
        <mxCell id="_p5EBCPVnYr-h8DB5MFF-18" value="Mengisi Formulir&amp;nbsp;Profil" style="rounded=1;whiteSpace=wrap;html=1;strokeWidth=2;fontSize=12;" parent="1" vertex="1">
          <mxGeometry x="120" y="439.5" width="120" height="60" as="geometry" />
        </mxCell>
        <mxCell id="_p5EBCPVnYr-h8DB5MFF-24" style="edgeStyle=orthogonalEdgeStyle;rounded=0;orthogonalLoop=1;jettySize=auto;html=1;entryX=1;entryY=0.5;entryDx=0;entryDy=0;strokeColor=#000000;fontSize=12;" parent="1" source="_p5EBCPVnYr-h8DB5MFF-22" target="_p5EBCPVnYr-h8DB5MFF-18" edge="1">
          <mxGeometry relative="1" as="geometry">
            <Array as="points">
              <mxPoint x="660" y="469.5" />
            </Array>
          </mxGeometry>
        </mxCell>
        <mxCell id="_p5EBCPVnYr-h8DB5MFF-25" value="Sudah" style="edgeLabel;html=1;align=center;verticalAlign=middle;resizable=0;points=[];fontSize=12;" parent="_p5EBCPVnYr-h8DB5MFF-24" vertex="1" connectable="0">
          <mxGeometry x="-0.3861" y="-1" relative="1" as="geometry">
            <mxPoint x="87" y="31" as="offset" />
          </mxGeometry>
        </mxCell>
        <mxCell id="20DuT2QTR_UrF6RUShH2-17" value="" style="edgeStyle=orthogonalEdgeStyle;rounded=0;orthogonalLoop=1;jettySize=auto;html=1;fontSize=12;" parent="1" source="_p5EBCPVnYr-h8DB5MFF-22" target="_p5EBCPVnYr-h8DB5MFF-26" edge="1">
          <mxGeometry relative="1" as="geometry" />
        </mxCell>
        <mxCell id="20DuT2QTR_UrF6RUShH2-18" value="Belum" style="edgeLabel;html=1;align=center;verticalAlign=middle;resizable=0;points=[];fontSize=12;" parent="20DuT2QTR_UrF6RUShH2-17" vertex="1" connectable="0">
          <mxGeometry x="-0.1689" y="-1" relative="1" as="geometry">
            <mxPoint x="1" as="offset" />
          </mxGeometry>
        </mxCell>
        <mxCell id="_p5EBCPVnYr-h8DB5MFF-22" value="&lt;font&gt;Apakah Username Atau Email Sudah Dipakai?&lt;/font&gt;" style="strokeWidth=2;html=1;shape=mxgraph.flowchart.decision;whiteSpace=wrap;spacingTop=12;fontSize=12;" parent="1" vertex="1">
          <mxGeometry x="600" y="529.5" width="120" height="120" as="geometry" />
        </mxCell>
        <mxCell id="ihfOgLCXBoVDXEVbLBRh-22" style="edgeStyle=orthogonalEdgeStyle;rounded=0;orthogonalLoop=1;jettySize=auto;html=1;entryX=1;entryY=0.5;entryDx=0;entryDy=0;" parent="1" source="_p5EBCPVnYr-h8DB5MFF-26" target="7nAhwSSTOHI013ocTRrG-177" edge="1">
          <mxGeometry relative="1" as="geometry">
            <Array as="points">
              <mxPoint x="760" y="749" />
              <mxPoint x="760" y="1280" />
            </Array>
          </mxGeometry>
        </mxCell>
        <mxCell id="_p5EBCPVnYr-h8DB5MFF-26" value="Menyimpan Data Di Database" style="rounded=1;whiteSpace=wrap;html=1;strokeWidth=2;fontSize=12;" parent="1" vertex="1">
          <mxGeometry x="600" y="719.5" width="120" height="60" as="geometry" />
        </mxCell>
        <mxCell id="20DuT2QTR_UrF6RUShH2-12" value="Mengkonfirmasi" style="rounded=1;whiteSpace=wrap;html=1;strokeWidth=2;fontSize=12;" parent="1" vertex="1">
          <mxGeometry x="400" y="559.5" width="120" height="60" as="geometry" />
        </mxCell>
        <mxCell id="20DuT2QTR_UrF6RUShH2-14" style="edgeStyle=orthogonalEdgeStyle;rounded=0;orthogonalLoop=1;jettySize=auto;html=1;entryX=0;entryY=0.5;entryDx=0;entryDy=0;entryPerimeter=0;fontSize=12;" parent="1" source="20DuT2QTR_UrF6RUShH2-12" target="_p5EBCPVnYr-h8DB5MFF-22" edge="1">
          <mxGeometry relative="1" as="geometry" />
        </mxCell>
        <mxCell id="20DuT2QTR_UrF6RUShH2-36" style="edgeStyle=orthogonalEdgeStyle;rounded=0;orthogonalLoop=1;jettySize=auto;html=1;entryX=0;entryY=0.5;entryDx=0;entryDy=0;fontSize=12;" parent="1" source="20DuT2QTR_UrF6RUShH2-35" target="20DuT2QTR_UrF6RUShH2-12" edge="1">
          <mxGeometry relative="1" as="geometry" />
        </mxCell>
        <mxCell id="20DuT2QTR_UrF6RUShH2-35" value="Klik Tombol&lt;div&gt;&quot;Update&quot;&lt;/div&gt;" style="rounded=1;whiteSpace=wrap;html=1;strokeWidth=2;fontSize=12;" parent="1" vertex="1">
          <mxGeometry x="120" y="559.5" width="120" height="60" as="geometry" />
        </mxCell>
        <mxCell id="ihfOgLCXBoVDXEVbLBRh-2" style="edgeStyle=orthogonalEdgeStyle;rounded=0;orthogonalLoop=1;jettySize=auto;html=1;entryX=0.5;entryY=0;entryDx=0;entryDy=0;" parent="1" source="ihfOgLCXBoVDXEVbLBRh-1" target="_p5EBCPVnYr-h8DB5MFF-18" edge="1">
          <mxGeometry relative="1" as="geometry" />
        </mxCell>
        <mxCell id="ihfOgLCXBoVDXEVbLBRh-3" value="Tidak" style="edgeLabel;html=1;align=center;verticalAlign=middle;resizable=0;points=[];" parent="ihfOgLCXBoVDXEVbLBRh-2" vertex="1" connectable="0">
          <mxGeometry x="-0.1958" y="-1" relative="1" as="geometry">
            <mxPoint x="1" y="-2" as="offset" />
          </mxGeometry>
        </mxCell>
        <mxCell id="ihfOgLCXBoVDXEVbLBRh-20" style="edgeStyle=orthogonalEdgeStyle;rounded=0;orthogonalLoop=1;jettySize=auto;html=1;entryX=0;entryY=0.5;entryDx=0;entryDy=0;" parent="1" source="ihfOgLCXBoVDXEVbLBRh-1" target="7sYRryN2wU3B9rWcaY_f-1" edge="1">
          <mxGeometry relative="1" as="geometry">
            <Array as="points">
              <mxPoint x="80" y="340" />
              <mxPoint x="80" y="750" />
            </Array>
          </mxGeometry>
        </mxCell>
        <mxCell id="ihfOgLCXBoVDXEVbLBRh-21" value="Ya" style="edgeLabel;html=1;align=center;verticalAlign=middle;resizable=0;points=[];" parent="ihfOgLCXBoVDXEVbLBRh-20" vertex="1" connectable="0">
          <mxGeometry x="-0.7361" y="-1" relative="1" as="geometry">
            <mxPoint as="offset" />
          </mxGeometry>
        </mxCell>
        <mxCell id="ihfOgLCXBoVDXEVbLBRh-1" value="Mengubah Katasandi?" style="strokeWidth=2;html=1;shape=mxgraph.flowchart.decision;whiteSpace=wrap;spacingTop=0;fontSize=12;" parent="1" vertex="1">
          <mxGeometry x="120" y="280" width="120" height="120" as="geometry" />
        </mxCell>
        <mxCell id="ihfOgLCXBoVDXEVbLBRh-4" style="edgeStyle=orthogonalEdgeStyle;rounded=0;orthogonalLoop=1;jettySize=auto;html=1;fontSize=12;" parent="1" source="ihfOgLCXBoVDXEVbLBRh-5" target="ihfOgLCXBoVDXEVbLBRh-15" edge="1">
          <mxGeometry relative="1" as="geometry" />
        </mxCell>
        <mxCell id="ihfOgLCXBoVDXEVbLBRh-5" value="Mengisi Formulir Current Password, Password, Confirm Password" style="rounded=1;whiteSpace=wrap;html=1;strokeWidth=2;fontSize=12;" parent="1" vertex="1">
          <mxGeometry x="120" y="840" width="120" height="60" as="geometry" />
        </mxCell>
        <mxCell id="ihfOgLCXBoVDXEVbLBRh-6" style="edgeStyle=orthogonalEdgeStyle;rounded=0;orthogonalLoop=1;jettySize=auto;html=1;entryX=1;entryY=0.5;entryDx=0;entryDy=0;strokeColor=#000000;fontSize=12;" parent="1" source="ihfOgLCXBoVDXEVbLBRh-10" target="ihfOgLCXBoVDXEVbLBRh-5" edge="1">
          <mxGeometry relative="1" as="geometry">
            <Array as="points">
              <mxPoint x="660" y="870" />
            </Array>
          </mxGeometry>
        </mxCell>
        <mxCell id="ihfOgLCXBoVDXEVbLBRh-7" value="Belum" style="edgeLabel;html=1;align=center;verticalAlign=middle;resizable=0;points=[];fontSize=12;" parent="ihfOgLCXBoVDXEVbLBRh-6" vertex="1" connectable="0">
          <mxGeometry x="-0.3861" y="-1" relative="1" as="geometry">
            <mxPoint x="87" y="31" as="offset" />
          </mxGeometry>
        </mxCell>
        <mxCell id="ihfOgLCXBoVDXEVbLBRh-8" value="" style="edgeStyle=orthogonalEdgeStyle;rounded=0;orthogonalLoop=1;jettySize=auto;html=1;fontSize=12;" parent="1" source="ihfOgLCXBoVDXEVbLBRh-10" target="ihfOgLCXBoVDXEVbLBRh-11" edge="1">
          <mxGeometry relative="1" as="geometry" />
        </mxCell>
        <mxCell id="ihfOgLCXBoVDXEVbLBRh-9" value="Sudah" style="edgeLabel;html=1;align=center;verticalAlign=middle;resizable=0;points=[];fontSize=12;" parent="ihfOgLCXBoVDXEVbLBRh-8" vertex="1" connectable="0">
          <mxGeometry x="-0.1689" y="-1" relative="1" as="geometry">
            <mxPoint x="1" as="offset" />
          </mxGeometry>
        </mxCell>
        <mxCell id="ihfOgLCXBoVDXEVbLBRh-10" value="&lt;font&gt;Apakah Confirm Password Sudah Sama Dengan Password?&lt;/font&gt;" style="strokeWidth=2;html=1;shape=mxgraph.flowchart.decision;whiteSpace=wrap;spacingTop=12;fontSize=12;" parent="1" vertex="1">
          <mxGeometry x="600" y="930" width="120" height="120" as="geometry" />
        </mxCell>
        <mxCell id="ihfOgLCXBoVDXEVbLBRh-23" style="edgeStyle=orthogonalEdgeStyle;rounded=0;orthogonalLoop=1;jettySize=auto;html=1;entryX=0.5;entryY=0;entryDx=0;entryDy=0;" parent="1" source="ihfOgLCXBoVDXEVbLBRh-11" target="7nAhwSSTOHI013ocTRrG-177" edge="1">
          <mxGeometry relative="1" as="geometry">
            <Array as="points">
              <mxPoint x="180" y="1150" />
            </Array>
          </mxGeometry>
        </mxCell>
        <mxCell id="ihfOgLCXBoVDXEVbLBRh-11" value="Menyimpan Data Di Database" style="rounded=1;whiteSpace=wrap;html=1;strokeWidth=2;fontSize=12;" parent="1" vertex="1">
          <mxGeometry x="600" y="1120" width="120" height="60" as="geometry" />
        </mxCell>
        <mxCell id="ihfOgLCXBoVDXEVbLBRh-12" value="Mengkonfirmasi" style="rounded=1;whiteSpace=wrap;html=1;strokeWidth=2;fontSize=12;" parent="1" vertex="1">
          <mxGeometry x="400" y="960" width="120" height="60" as="geometry" />
        </mxCell>
        <mxCell id="ihfOgLCXBoVDXEVbLBRh-13" style="edgeStyle=orthogonalEdgeStyle;rounded=0;orthogonalLoop=1;jettySize=auto;html=1;entryX=0;entryY=0.5;entryDx=0;entryDy=0;entryPerimeter=0;fontSize=12;" parent="1" source="ihfOgLCXBoVDXEVbLBRh-12" target="ihfOgLCXBoVDXEVbLBRh-10" edge="1">
          <mxGeometry relative="1" as="geometry" />
        </mxCell>
        <mxCell id="ihfOgLCXBoVDXEVbLBRh-14" style="edgeStyle=orthogonalEdgeStyle;rounded=0;orthogonalLoop=1;jettySize=auto;html=1;entryX=0;entryY=0.5;entryDx=0;entryDy=0;fontSize=12;" parent="1" source="ihfOgLCXBoVDXEVbLBRh-15" target="ihfOgLCXBoVDXEVbLBRh-12" edge="1">
          <mxGeometry relative="1" as="geometry" />
        </mxCell>
        <mxCell id="ihfOgLCXBoVDXEVbLBRh-15" value="Klik Tombol&lt;div&gt;&quot;Update&quot;&lt;/div&gt;" style="rounded=1;whiteSpace=wrap;html=1;strokeWidth=2;fontSize=12;" parent="1" vertex="1">
          <mxGeometry x="120" y="960" width="120" height="60" as="geometry" />
        </mxCell>
        <mxCell id="7sYRryN2wU3B9rWcaY_f-2" style="edgeStyle=orthogonalEdgeStyle;rounded=0;orthogonalLoop=1;jettySize=auto;html=1;entryX=0.5;entryY=0;entryDx=0;entryDy=0;" edge="1" parent="1" source="7sYRryN2wU3B9rWcaY_f-1" target="ihfOgLCXBoVDXEVbLBRh-5">
          <mxGeometry relative="1" as="geometry" />
        </mxCell>
        <mxCell id="7sYRryN2wU3B9rWcaY_f-1" value="Klik Tombol&lt;div&gt;&quot;Click Here!&quot;&lt;/div&gt;" style="rounded=1;whiteSpace=wrap;html=1;strokeWidth=2;fontSize=12;" vertex="1" parent="1">
          <mxGeometry x="120" y="719.5" width="120" height="60" as="geometry" />
        </mxCell>
      </root>
    </mxGraphModel>
  </diagram>
</mxfile>
